<?xml version="1.0" encoding="UTF-8" standalone="no"?>
<!DOCTYPE svg PUBLIC "-//W3C//DTD SVG 1.1//EN" "http://www.w3.org/Graphics/SVG/1.1/DTD/svg11.dtd">
<svg
    xmlns="http://www.w3.org/2000/svg" version="1.1"
    width="96" height="1">
  <g fill="#000000" fill-opacity="0.2" stroke="none" stroke-width="0">
    <rect x="8.5" y="0" width="7" height="1" />
    <rect x="24.5" y="0" width="7" height="1" />
    <rect x="48.5" y="0" width="7" height="1" />
    <rect x="64.5" y="0" width="7" height="1" />
    <rect x="80.5" y="0" width="7" height="1" />
  </g>
  <g fill="none" stroke="#000000" stroke-width="1" stroke-opacity="0.5">
    <line x1="0" y1="0" x2="0" y2="1" style="stroke-opacity: 1" />
    <line x1="8" y1="0" x2="8" y2="1" />
    <line x1="16" y1="0" x2="16" y2="1" />
    <line x1="24" y1="0" x2="24" y2="1" />
    <line x1="32" y1="0" x2="32" y2="1" />
    <line x1="40" y1="0" x2="40" y2="1" />
    <line x1="48" y1="0" x2="48" y2="1" />
    <line x1="56" y1="0" x2="56" y2="1" />
    <line x1="64" y1="0" x2="64" y2="1" />
    <line x1="72" y1="0" x2="72" y2="1" />
    <line x1="80" y1="0" x2="80" y2="1" />
    <line x1="88" y1="0" x2="88" y2="1" />
    <line x1="96" y1="0" x2="96" y2="1" style="stroke-opacity: 1" />
  </g>
</svg>
